<?xml version="1.0" standalone="no"?><!DOCTYPE svg PUBLIC "-//W3C//DTD SVG 1.1//EN" "http://www.w3.org/Graphics/SVG/1.1/DTD/svg11.dtd"><svg t="1585702524959" class="icon" viewBox="0 0 1024 1024" version="1.1" xmlns="http://www.w3.org/2000/svg" p-id="6050" xmlns:xlink="http://www.w3.org/1999/xlink" width="200" height="200"><defs><style type="text/css"></style></defs><path d="M863 110H161c-66 0-117 51-117 117v578c0 65 51 117 117 117h702c66 0 117-52 117-117V227c0-66-51-117-117-117z m-388 73c22 0 37 22 37 44s-15 36-37 36-43-14-43-36 21-44 43-44z m-160 0c21 0 36 14 36 36s-15 44-36 44-37-14-37-36 15-44 37-44z m-154 0c22 0 36 14 36 36s-14 44-36 44-37-14-37-36 15-44 37-44z m739 614c0 22-15 37-37 37H161c-22 0-37-15-37-37V380c0-22 15-36 37-36h702c22 0 37 14 37 36v417z" p-id="6051" fill="#027DB4"></path><path d="M241 432l154 153-154 154h117l154-147-154-160H241z m271 234h234v80H512v-80z" p-id="6052" fill="#027DB4"></path></svg>