<?xml version="1.0" standalone="no"?><!DOCTYPE svg PUBLIC "-//W3C//DTD SVG 1.1//EN" "http://www.w3.org/Graphics/SVG/1.1/DTD/svg11.dtd"><svg t="1585702394305" class="icon" viewBox="0 0 1024 1024" version="1.1" xmlns="http://www.w3.org/2000/svg" p-id="3571" xmlns:xlink="http://www.w3.org/1999/xlink" width="200" height="200"><defs><style type="text/css"></style></defs><path d="M510.402 93.47c56.54 0 111.341 11.055 162.883 32.855 49.828 21.076 94.596 51.266 133.06 89.73 38.466 38.466 68.655 83.234 89.731 133.062 21.801 51.542 32.855 106.344 32.855 162.884s-11.054 111.342-32.855 162.884c-21.076 49.828-51.264 94.595-89.73 133.061-38.464 38.465-83.233 68.655-133.06 89.73-51.544 21.8-106.346 32.854-162.884 32.854s-111.342-11.054-162.884-32.854c-49.828-21.076-94.597-51.265-133.062-89.73-38.465-38.466-68.654-83.234-89.73-133.061C102.926 623.342 91.87 568.54 91.87 512s11.054-111.342 32.855-162.884c21.076-49.828 51.265-94.596 89.73-133.061s83.234-68.655 133.062-89.73C399.06 104.524 453.863 93.47 510.402 93.47m0-86.981C231.216 6.49 4.892 232.814 4.892 512s226.324 505.51 505.51 505.51c279.185 0 505.51-226.324 505.51-505.51S789.588 6.49 510.402 6.49z" fill="#027DB4" p-id="3572"></path><path d="M240.156 512a63.475 63.475 0 1 0 129.908 0 63.475 63.475 0 1 0-129.908 0zM445.447 512a63.475 63.475 0 1 0 129.909 0 63.475 63.475 0 1 0-129.909 0zM650.739 512a63.475 63.475 0 1 0 129.909 0 63.475 63.475 0 1 0-129.91 0z" fill="#027DB4" p-id="3573"></path></svg>