<?xml version="1.0" standalone="no"?><!DOCTYPE svg PUBLIC "-//W3C//DTD SVG 1.1//EN" "http://www.w3.org/Graphics/SVG/1.1/DTD/svg11.dtd"><svg t="1585702462525" class="icon" viewBox="0 0 1024 1024" version="1.1" xmlns="http://www.w3.org/2000/svg" p-id="5236" xmlns:xlink="http://www.w3.org/1999/xlink" width="200" height="200"><defs><style type="text/css"></style></defs><path d="M273.067 457.387H20.48V136.533c0-68.266 54.613-122.88 122.88-122.88h716.8c34.133 0 61.44 13.654 81.92 34.134 20.48 20.48 34.133 54.613 34.133 81.92v314.026h-348.16l-40.96 88.747-27.306-61.44L409.6 129.707l-136.533 327.68zM696.32 552.96h279.893v300.373c0 34.134-13.653 61.44-34.133 81.92-20.48 20.48-54.613 34.134-81.92 34.134H136.533c-34.133 0-61.44-13.654-81.92-34.134-20.48-20.48-34.133-54.613-34.133-81.92V559.787h320.853l75.094-170.667 61.44 136.533L593.92 785.067l102.4-232.107z" p-id="5237" fill="#027DB4"></path></svg>