<?xml version="1.0" standalone="no"?><!DOCTYPE svg PUBLIC "-//W3C//DTD SVG 1.1//EN" "http://www.w3.org/Graphics/SVG/1.1/DTD/svg11.dtd"><svg t="1585668290572" class="icon" viewBox="0 0 1024 1024" version="1.1" xmlns="http://www.w3.org/2000/svg" p-id="2275" xmlns:xlink="http://www.w3.org/1999/xlink" width="200" height="200"><defs><style type="text/css"></style></defs><path d="M928 256v682.688c0 47.104-38.208 85.312-85.312 85.312H181.312A85.312 85.312 0 0 1 96 938.688V85.312C96 38.208 134.208 0 181.312 0H678.4v214.4a41.6 41.6 0 0 0 42.688 41.6H928z m0-85.312h-166.4V0h5.632c23.04 0 45.056 9.28 61.056 25.792l75.52 77.376c15.488 15.936 24.192 37.312 24.192 59.52v8z m-622.912 256a42.688 42.688 0 1 0 0 85.312h413.824a42.688 42.688 0 1 0 0-85.312H305.088z m0 170.624a42.688 42.688 0 0 0 0 85.376h413.824a42.688 42.688 0 0 0 0-85.376H305.088z m0 170.688a42.688 42.688 0 1 0 0 85.312h413.824a42.688 42.688 0 1 0 0-85.312H305.088z" p-id="2276" fill="#027DB4"></path></svg>